<?xml version="1.0" encoding="UTF-8"?>
<svg xmlns="http://www.w3.org/2000/svg" viewBox="0 0 900 220" role="img" aria-label="Parc Zoologique et Botanique de Mulhouse">
	<style>
		.brand-fill { fill: #b88a2f; }
		.brand-stroke { stroke: #b88a2f; }
		.brand-text { font-family: 'Poppins', 'Montserrat', 'Segoe UI', sans-serif; font-weight: 600; letter-spacing: 0.08em; text-transform: uppercase; }
		.brand-text.small { font-size: 42px; }
		.brand-text.large { font-size: 68px; letter-spacing: 0.05em; text-transform: none; }
	</style>

	<!-- Circular emblem -->
	<g transform="translate(60 30)">
		<circle cx="90" cy="90" r="85" fill="none" stroke="#b88a2f" stroke-width="8" />
		<path d="M90 25 C65 55 55 95 62 130 C67 150 80 165 90 174" fill="none" stroke="#b88a2f" stroke-width="9" stroke-linecap="round" />
		<path d="M90 25 C115 55 125 95 118 130 C113 150 100 165 90 174" fill="none" stroke="#b88a2f" stroke-width="9" stroke-linecap="round" />
		<path d="M90 48 C73 64 65 80 67 98 C68 110 75 121 90 132" fill="none" stroke="#b88a2f" stroke-width="7" stroke-linecap="round" />
		<path d="M90 48 C107 64 115 80 113 98 C112 110 105 121 90 132" fill="none" stroke="#b88a2f" stroke-width="7" stroke-linecap="round" />
		<path d="M73 72 C60 62 52 48 52 33" fill="none" stroke="#b88a2f" stroke-width="6" stroke-linecap="round" />
		<path d="M107 72 C120 62 128 48 128 33" fill="none" stroke="#b88a2f" stroke-width="6" stroke-linecap="round" />
	</g>

	<!-- Text block -->
	<g transform="translate(250 90)">
		<text class="brand-text large brand-fill" y="0">Parc Zoologique &amp; Botanique</text>
		<rect x="0" y="25" width="430" height="70" fill="none" stroke="#b88a2f" stroke-width="6" rx="10" ry="10" />
		<text class="brand-text small" x="20" y="70" fill="#b88a2f">Mulhouse</text>
	</g>
</svg>
